# xmcd
#
# Track frame offsets:
#	150
#	19218
#	37832
#	51716
#	69214
#	86272
#	105656
#	125932
#	143356
#	160737
#	179805
#	198419
#	212303
#	229801
#	246859
#	266243
#	286519
#	303943
#
# Disc length: 4284 seconds
#
# Revision: 1
# Processed by: cddbd v1.5.2PL0 Copyright (c) Steve Scherf et al.
# Submitted via: audiograbber 1.83.01
#
DISCID=f910ba12
DTITLE=Various Artist - Pop Hits 20903-3
DYEAR=2009
DGENRE=Pop
TTITLE0=Dean Brody - Brothers
TTITLE1=Jessica Andrews - Everyhing
TTITLE2=Blake Shelton - Good At Startin' Fires
TTITLE3=Melonie Cannon - And The Wheels Turn
TTITLE4=Ritchie McDonald - How Do I Just Stop
TTITLE5=Steve Holy - Might Have Been
TTITLE6=Jeremy McComb - Cold
TTITLE7=John Michael Montgomery - If You Ever Went Away
TTITLE8=Trisha Yearwood - Nohin' Bout Memphis
TTITLE9=Dean Brody - Brothers - vocal
TTITLE10=Jessica Andrews - Everything - vocal
TTITLE11=Blake Shelton - Good At Startin' Fires - vocal
TTITLE12=Melonie Cannon - And The Wheels Turn - vocal
TTITLE13=Ritchie McDonald - How Do I Just Stop - vocal
TTITLE14=Steve Holy - Might Have Been - vocal
TTITLE15=Jeremy McComb - Cold - vocal
TTITLE16=John Michael Montgomery - If You Ever Went Away - vocal
TTITLE17=Trisha Yearwood - Nothin' Bout Memphis - vocal
EXTD=
EXTT0=
EXTT1=
EXTT2=
EXTT3=
EXTT4=
EXTT5=
EXTT6=
EXTT7=
EXTT8=
EXTT9=
EXTT10=
EXTT11=
EXTT12=
EXTT13=
EXTT14=
EXTT15=
EXTT16=
EXTT17=
PLAYORDER=
